<?xml version="1.0" ?><svg data-name="Layer 2" id="Layer_2" viewBox="0 0 512 512" xmlns="http://www.w3.org/2000/svg"><defs><style>.cls-1{fill:#fff;}</style></defs><title/><path d="M312,180a28,28,0,1,1,28-28A28.0314,28.0314,0,0,1,312,180Zm0-48a20,20,0,1,0,20,20A20.023,20.023,0,0,0,312,132Z"/><path d="M216,180a28,28,0,1,1,28-28A28.0314,28.0314,0,0,1,216,180Zm0-48a20,20,0,1,0,20,20A20.023,20.023,0,0,0,216,132Z"/><path d="M120,180a28,28,0,1,1,28-28A28.0314,28.0314,0,0,1,120,180Zm0-48a20,20,0,1,0,20,20A20.023,20.023,0,0,0,120,132Z"/><path d="M55.13,358.5713q-2.09,0-4.0469-.1006c-4.2095-.21-7.8115-2.9067-9.8823-7.3989-2.3164-5.0254-2.6846-12.648,1.7139-18.3491A169.549,169.549,0,0,0,60.417,304.54l.2012-.4067c4.6577-9.4585,4.1245-22.0469-1.2569-30.6958-1.8091-2.9067-5.7583-7.7837-11.8882-7.7837H36.4937C22.9878,265.6538,12,251.0273,12,233.0493V44.6045C12,26.6265,22.9878,12,36.4937,12H379.5063C393.0122,12,404,26.6265,404,44.6045V233.0493c0,17.978-10.9878,32.6045-24.4937,32.6045H158.3706c-6.3564,0-12.227,5.6284-14.9565,14.3394-6.4927,20.7221-16.0752,38.0078-28.482,51.3774C94.45,353.4434,71.7705,358.5713,55.13,358.5713ZM36.4937,20C27.5532,20,20,31.2676,20,44.6045V233.0493c0,13.3369,7.5532,24.6045,16.4937,24.6045H47.4731c7.3018,0,14.11,4.2124,18.6807,11.5571,6.8711,11.0435,7.5469,26.4649,1.6816,38.3741l-.2558.5175a177.503,177.503,0,0,1-18.3311,29.5069c-2.2373,2.9-2.0874,7.2827-.7827,10.1133.37.8027,1.4043,2.6777,3.0152,2.7578,15.1674.7529,37.4868-2.89,57.5869-24.5513,14.4375-15.5581,22.4951-34.8682,26.7124-48.3276,3.7964-12.1177,12.664-19.9478,22.59-19.9478H379.5063c8.94,0,16.4937-11.2676,16.4937-24.6045V44.6045C396,31.2676,388.4468,20,379.5063,20Z"/><path class="cls-1" d="M475.5062,160H132.4938C121.1754,160,112,172.8066,112,188.6044V377.0493c0,15.7978,9.1754,28.6044,20.4938,28.6044H353.63c8.1457,0,15.51,6.7271,18.7734,17.1438,4.583,14.6271,12.8589,33.97,27.597,49.8526,21.1174,22.7571,44.5711,26.63,60.7185,25.8253,7.1233-.3548,10.423-12.5393,5.2-19.3091A172.81,172.81,0,0,1,448,450.318q-.1242-.25-.2473-.5c-9.2107-18.7029.5139-44.164,16.774-44.164h10.9795c11.3184,0,20.4938-12.8066,20.4938-28.6044V188.6044C496,172.8066,486.8246,160,475.5062,160Z"/><path d="M456.87,502.5713c-16.6411,0-39.3188-5.1265-59.8022-27.2007-12.4068-13.37-21.9893-30.6553-28.482-51.3774-2.7295-8.711-8.6-14.3394-14.9565-14.3394H132.4937c-13.5059,0-24.4937-14.6265-24.4937-32.6045V188.6045C108,170.6265,118.9878,156,132.4937,156H475.5063C489.0122,156,500,170.6265,500,188.6045V377.0493c0,17.978-10.9878,32.6045-24.4937,32.6045H464.5269c-6.13,0-10.0791,4.877-11.8882,7.7837-5.3814,8.6489-5.9146,21.2373-1.2974,30.6133l.2383.4824a169.5721,169.5721,0,0,0,17.5058,28.1895c4.3985,5.7011,4.03,13.3237,1.7139,18.3491-2.0708,4.4922-5.6728,7.1889-9.8818,7.3989C459.6143,502.5356,458.2627,502.5713,456.87,502.5713ZM132.4937,164C123.5532,164,116,175.2676,116,188.6045V377.0493c0,13.3369,7.5532,24.6045,16.4937,24.6045H353.6294c9.9263,0,18.7939,7.83,22.59,19.9478,4.2173,13.4594,12.2749,32.7695,26.7124,48.3276,20.1006,21.6616,42.4107,25.311,57.5874,24.5513,1.61-.08,2.6446-1.9551,3.0147-2.7578,1.3047-2.8306,1.4546-7.2134-.7827-10.1133a177.526,177.526,0,0,1-18.3345-29.5137l-.2119-.4282c-5.9058-11.9917-5.23-27.4131,1.6411-38.4566,4.57-7.3447,11.3789-11.5571,18.6807-11.5571h10.9794c8.94,0,16.4937-11.2676,16.4937-24.6045V188.6045C492,175.2676,484.4468,164,475.5063,164Z"/><path d="M408,308a28,28,0,1,1,28-28A28.0314,28.0314,0,0,1,408,308Zm0-48a20,20,0,1,0,20,20A20.023,20.023,0,0,0,408,260Z"/><path d="M312,308a28,28,0,1,1,28-28A28.0314,28.0314,0,0,1,312,308Zm0-48a20,20,0,1,0,20,20A20.023,20.023,0,0,0,312,260Z"/><path d="M216,308a28,28,0,1,1,28-28A28.0314,28.0314,0,0,1,216,308Zm0-48a20,20,0,1,0,20,20A20.023,20.023,0,0,0,216,260Z"/><path d="M384,116a4,4,0,0,1-4-4V64a4,4,0,0,1,8,0v48A4,4,0,0,1,384,116Z"/><path d="M384,148a4,4,0,0,1-4-4V128a4,4,0,0,1,8,0v16A4,4,0,0,1,384,148Z"/><path d="M144,36H64a4,4,0,0,1,0-8h80a4,4,0,0,1,0,8Z"/><path d="M176,36H160a4,4,0,0,1,0-8h16a4,4,0,0,1,0,8Z"/><path d="M128,340a4,4,0,0,1-4-4V304a4,4,0,0,1,8,0v32A4,4,0,0,1,128,340Z"/><path d="M128,372a4,4,0,0,1-4-4V352a4,4,0,0,1,8,0v16A4,4,0,0,1,128,372Z"/><path d="M480,244a4,4,0,0,1-4-4V208a4,4,0,0,1,8,0v32A4,4,0,0,1,480,244Z"/><path d="M480,276a4,4,0,0,1-4-4V256a4,4,0,0,1,8,0v16A4,4,0,0,1,480,276Z"/></svg>